<svg xmlns="http://www.w3.org/2000/svg" viewBox="0 0 512 620" role="img" aria-labelledby="title desc">
  <title id="title">Club Social y Deportivo Yacyretá</title>
  <desc id="desc">Escudo naranja y negro del Club Social y Deportivo Yacyretá, Ituzaingó 1979.</desc>
  <defs>
    <linearGradient id="shield" x1="0" y1="0" x2="1" y2="1">
      <stop offset="0" stop-color="#ff6a00" />
      <stop offset="0.58" stop-color="#ef3f0a" />
      <stop offset="1" stop-color="#c92c08" />
    </linearGradient>
    <linearGradient id="stripe" x1="0" y1="1" x2="1" y2="0">
      <stop offset="0" stop-color="#9d2307" stop-opacity="0.76" />
      <stop offset="1" stop-color="#ff8a00" stop-opacity="0.55" />
    </linearGradient>
    <clipPath id="shieldClip">
      <path d="M256 24C191 24 116 38 62 72v210c0 128 83 239 194 304 111-65 194-176 194-304V72C396 38 321 24 256 24Z" />
    </clipPath>
  </defs>

  <path d="M256 24C191 24 116 38 62 72v210c0 128 83 239 194 304 111-65 194-176 194-304V72C396 38 321 24 256 24Z" fill="url(#shield)" stroke="#111111" stroke-width="16" stroke-linejoin="round" />
  <path d="M256 40C193 40 126 52 78 82v198c0 116 73 217 178 281 105-64 178-165 178-281V82c-48-30-115-42-178-42Z" fill="none" stroke="#ffd7b0" stroke-opacity="0.78" stroke-width="4" />

  <g clip-path="url(#shieldClip)">
    <path d="M-20 344 532 82v116L-20 462Z" fill="url(#stripe)" opacity="0.75" />
    <path d="M-16 506 528 232v54L-16 562Z" fill="#ff7b00" opacity="0.42" />
    <circle cx="405" cy="350" r="112" fill="#ff8a00" opacity="0.22" />
  </g>

  <g fill="#ffffff" font-family="Arial, Helvetica, sans-serif" text-anchor="middle">
    <text x="256" y="91" font-size="22" font-weight="700" letter-spacing="2.4">CLUB SOCIAL Y DEPORTIVO</text>
    <text x="256" y="148" font-size="56" font-weight="900" letter-spacing="1">YACYRETA</text>
  </g>

  <!-- Emblema central vectorizado a partir del símbolo del escudo -->
  <g fill="none" stroke="#111111" stroke-linecap="round" stroke-linejoin="round">
    <path d="M143 239c22-34 70-48 107-35 23 8 38 27 48 45" stroke-width="12" />
    <path d="M148 245c17 28 49 42 80 38 19-3 35-12 48-27" stroke="#ffffff" stroke-width="9" />
    <path d="M214 204c-26 5-48 17-62 38-15 23-9 52 18 67 27 16 60 9 76-17" stroke-width="13" />
    <path d="m314 198-86 155" stroke-width="18" />
    <path d="m335 204-86 155" stroke="#ffffff" stroke-width="8" />
    <path d="M323 203c8 4 16 13 17 24 1 9-3 17-10 23l-22 18" stroke-width="13" />
    <path d="M188 267c-22-1-39-13-45-29" stroke="#ffffff" stroke-width="6" />
  </g>

  <g fill="#111111">
    <path d="m352 312 11 22 25 4-18 17 4 25-22-12-22 12 4-25-18-17 25-4Z" opacity="0.8" />
  </g>

  <g fill="#ffffff" font-family="Arial, Helvetica, sans-serif" text-anchor="middle">
    <text x="256" y="492" font-size="27" font-weight="800" letter-spacing="3">ITUZAINGÓ</text>
    <text x="256" y="535" font-size="26" font-weight="700" letter-spacing="5">1979</text>
  </g>
</svg>
